<mxfile host="app.diagrams.net" modified="2023-11-20T02:10:20.397Z" agent="Mozilla/5.0 (X11; Linux x86_64; rv:109.0) Gecko/20100101 Firefox/115.0" etag="XAHvA8cMzWMke0H7I7jU" version="22.1.3" type="device">
  <diagram name="Page-1" id="zbjk_pvhD1T5-x9gNrN1">
    <mxGraphModel dx="1960" dy="900" grid="1" gridSize="10" guides="1" tooltips="1" connect="1" arrows="1" fold="1" page="1" pageScale="1" pageWidth="850" pageHeight="1100" math="0" shadow="0">
      <root>
        <mxCell id="0" />
        <mxCell id="1" parent="0" />
        <mxCell id="TIhrnQMRRgqoJbZlH16x-7" value="" style="edgeStyle=orthogonalEdgeStyle;rounded=0;orthogonalLoop=1;jettySize=auto;html=1;" edge="1" parent="1" source="TIhrnQMRRgqoJbZlH16x-2" target="TIhrnQMRRgqoJbZlH16x-5">
          <mxGeometry relative="1" as="geometry" />
        </mxCell>
        <mxCell id="TIhrnQMRRgqoJbZlH16x-2" value="Start Install" style="ellipse;whiteSpace=wrap;html=1;aspect=fixed;" vertex="1" parent="1">
          <mxGeometry x="60" y="271" width="80" height="80" as="geometry" />
        </mxCell>
        <mxCell id="TIhrnQMRRgqoJbZlH16x-10" value="" style="edgeStyle=orthogonalEdgeStyle;rounded=0;orthogonalLoop=1;jettySize=auto;html=1;" edge="1" parent="1" source="TIhrnQMRRgqoJbZlH16x-3" target="TIhrnQMRRgqoJbZlH16x-9">
          <mxGeometry relative="1" as="geometry" />
        </mxCell>
        <mxCell id="TIhrnQMRRgqoJbZlH16x-3" value="&amp;lt;User Input&amp;gt;" style="rounded=0;whiteSpace=wrap;html=1;" vertex="1" parent="1">
          <mxGeometry x="400" y="281" width="120" height="60" as="geometry" />
        </mxCell>
        <mxCell id="TIhrnQMRRgqoJbZlH16x-8" value="" style="edgeStyle=orthogonalEdgeStyle;rounded=0;orthogonalLoop=1;jettySize=auto;html=1;" edge="1" parent="1" source="TIhrnQMRRgqoJbZlH16x-5" target="TIhrnQMRRgqoJbZlH16x-3">
          <mxGeometry relative="1" as="geometry" />
        </mxCell>
        <mxCell id="TIhrnQMRRgqoJbZlH16x-5" value="&amp;lt;Software License&amp;gt;" style="rounded=0;whiteSpace=wrap;html=1;" vertex="1" parent="1">
          <mxGeometry x="200" y="281" width="120" height="60" as="geometry" />
        </mxCell>
        <mxCell id="TIhrnQMRRgqoJbZlH16x-9" value="&amp;lt;Install Process&amp;gt;" style="whiteSpace=wrap;html=1;rounded=0;" vertex="1" parent="1">
          <mxGeometry x="600" y="281" width="120" height="60" as="geometry" />
        </mxCell>
        <mxCell id="TIhrnQMRRgqoJbZlH16x-15" value="" style="edgeStyle=orthogonalEdgeStyle;rounded=0;orthogonalLoop=1;jettySize=auto;html=1;" edge="1" parent="1" source="TIhrnQMRRgqoJbZlH16x-11" target="TIhrnQMRRgqoJbZlH16x-14">
          <mxGeometry relative="1" as="geometry" />
        </mxCell>
        <mxCell id="TIhrnQMRRgqoJbZlH16x-11" value="Login" style="ellipse;whiteSpace=wrap;html=1;aspect=fixed;" vertex="1" parent="1">
          <mxGeometry x="60" y="463" width="80" height="80" as="geometry" />
        </mxCell>
        <mxCell id="TIhrnQMRRgqoJbZlH16x-12" value="Installation Process" style="text;html=1;strokeColor=none;fillColor=none;align=center;verticalAlign=middle;whiteSpace=wrap;rounded=0;fontSize=26;" vertex="1" parent="1">
          <mxGeometry x="280" y="198" width="270" height="30" as="geometry" />
        </mxCell>
        <mxCell id="TIhrnQMRRgqoJbZlH16x-13" value="Software Interface" style="text;html=1;strokeColor=none;fillColor=none;align=center;verticalAlign=middle;whiteSpace=wrap;rounded=0;fontSize=26;" vertex="1" parent="1">
          <mxGeometry x="280" y="394" width="270" height="30" as="geometry" />
        </mxCell>
        <mxCell id="TIhrnQMRRgqoJbZlH16x-21" value="" style="edgeStyle=orthogonalEdgeStyle;rounded=0;orthogonalLoop=1;jettySize=auto;html=1;" edge="1" parent="1" source="TIhrnQMRRgqoJbZlH16x-14" target="TIhrnQMRRgqoJbZlH16x-20">
          <mxGeometry relative="1" as="geometry" />
        </mxCell>
        <mxCell id="TIhrnQMRRgqoJbZlH16x-23" value="" style="edgeStyle=orthogonalEdgeStyle;rounded=0;orthogonalLoop=1;jettySize=auto;html=1;" edge="1" parent="1" source="TIhrnQMRRgqoJbZlH16x-14" target="TIhrnQMRRgqoJbZlH16x-22">
          <mxGeometry relative="1" as="geometry" />
        </mxCell>
        <mxCell id="TIhrnQMRRgqoJbZlH16x-14" value="Diff. Account" style="shape=step;perimeter=stepPerimeter;whiteSpace=wrap;html=1;fixedSize=1;" vertex="1" parent="1">
          <mxGeometry x="200" y="463" width="120" height="80" as="geometry" />
        </mxCell>
        <mxCell id="TIhrnQMRRgqoJbZlH16x-26" style="edgeStyle=orthogonalEdgeStyle;rounded=0;orthogonalLoop=1;jettySize=auto;html=1;exitX=0;exitY=1;exitDx=0;exitDy=0;" edge="1" parent="1" source="TIhrnQMRRgqoJbZlH16x-20" target="TIhrnQMRRgqoJbZlH16x-25">
          <mxGeometry relative="1" as="geometry">
            <Array as="points">
              <mxPoint x="440" y="538" />
              <mxPoint x="365" y="538" />
            </Array>
          </mxGeometry>
        </mxCell>
        <mxCell id="TIhrnQMRRgqoJbZlH16x-41" style="edgeStyle=orthogonalEdgeStyle;rounded=0;orthogonalLoop=1;jettySize=auto;html=1;exitX=1;exitY=1;exitDx=0;exitDy=0;entryX=0.5;entryY=0;entryDx=0;entryDy=0;" edge="1" parent="1" source="TIhrnQMRRgqoJbZlH16x-20" target="TIhrnQMRRgqoJbZlH16x-47">
          <mxGeometry relative="1" as="geometry">
            <mxPoint x="560" y="633.0000000000001" as="targetPoint" />
          </mxGeometry>
        </mxCell>
        <mxCell id="TIhrnQMRRgqoJbZlH16x-20" value="Admin" style="rhombus;whiteSpace=wrap;html=1;" vertex="1" parent="1">
          <mxGeometry x="420" y="463" width="80" height="80" as="geometry" />
        </mxCell>
        <mxCell id="TIhrnQMRRgqoJbZlH16x-43" style="edgeStyle=orthogonalEdgeStyle;rounded=0;orthogonalLoop=1;jettySize=auto;html=1;exitX=1;exitY=0.5;exitDx=0;exitDy=0;fontColor=#FF8282;strokeColor=#FF8282;" edge="1" parent="1" source="TIhrnQMRRgqoJbZlH16x-22" target="TIhrnQMRRgqoJbZlH16x-47">
          <mxGeometry relative="1" as="geometry">
            <mxPoint x="500" y="663.0000000000001" as="targetPoint" />
          </mxGeometry>
        </mxCell>
        <mxCell id="TIhrnQMRRgqoJbZlH16x-22" value="User" style="rhombus;whiteSpace=wrap;html=1;" vertex="1" parent="1">
          <mxGeometry x="220" y="623" width="80" height="80" as="geometry" />
        </mxCell>
        <mxCell id="TIhrnQMRRgqoJbZlH16x-29" style="edgeStyle=orthogonalEdgeStyle;rounded=0;orthogonalLoop=1;jettySize=auto;html=1;exitX=0;exitY=0.5;exitDx=0;exitDy=0;" edge="1" parent="1" source="TIhrnQMRRgqoJbZlH16x-25">
          <mxGeometry relative="1" as="geometry">
            <mxPoint x="260" y="598" as="targetPoint" />
          </mxGeometry>
        </mxCell>
        <mxCell id="TIhrnQMRRgqoJbZlH16x-25" value="Settings for User Accounts/Groups" style="ellipse;whiteSpace=wrap;html=1;" vertex="1" parent="1">
          <mxGeometry x="305" y="558" width="120" height="80" as="geometry" />
        </mxCell>
        <mxCell id="TIhrnQMRRgqoJbZlH16x-33" value="&lt;h1&gt;Info:&lt;/h1&gt;&lt;p&gt;Diagram for the Workflow of the FBLA Code and Programming Desktop Application.&lt;/p&gt;&lt;p&gt;Application is over the process of storing and processing Business Sponsors for FBLA.&lt;br&gt;&lt;/p&gt;" style="text;html=1;strokeColor=none;fillColor=none;spacing=5;spacingTop=-20;whiteSpace=wrap;overflow=hidden;rounded=0;" vertex="1" parent="1">
          <mxGeometry x="34" y="16" width="190" height="154" as="geometry" />
        </mxCell>
        <mxCell id="TIhrnQMRRgqoJbZlH16x-34" value="&lt;div&gt;&lt;b&gt;&lt;i&gt;Key&lt;/i&gt;&lt;/b&gt;&lt;/div&gt;&lt;div&gt;&lt;b&gt;&lt;br&gt;&lt;/b&gt;&lt;/div&gt;&lt;div&gt;&lt;i&gt;DB&lt;/i&gt; = Database&lt;b&gt;&lt;br&gt;&lt;/b&gt;&lt;/div&gt;&lt;div&gt;&lt;i&gt;Red Arrow&lt;/i&gt; = Setting Dependent&lt;/div&gt;&lt;div&gt;&lt;i&gt;Conf.&lt;/i&gt; = Configuration&lt;/div&gt;&lt;div&gt;&lt;i&gt;F&lt;/i&gt; = Features&lt;br&gt;&lt;/div&gt;" style="shape=process;whiteSpace=wrap;html=1;backgroundOutline=1;align=center;" vertex="1" parent="1">
          <mxGeometry x="560" y="21" width="270" height="90" as="geometry" />
        </mxCell>
        <mxCell id="TIhrnQMRRgqoJbZlH16x-35" value="Database Flow" style="text;html=1;strokeColor=none;fillColor=none;align=center;verticalAlign=middle;whiteSpace=wrap;rounded=0;fontSize=26;" vertex="1" parent="1">
          <mxGeometry x="280" y="785" width="270" height="30" as="geometry" />
        </mxCell>
        <mxCell id="TIhrnQMRRgqoJbZlH16x-64" style="edgeStyle=orthogonalEdgeStyle;rounded=0;orthogonalLoop=1;jettySize=auto;html=1;exitX=0.5;exitY=1;exitDx=0;exitDy=0;exitPerimeter=0;" edge="1" parent="1" source="TIhrnQMRRgqoJbZlH16x-36" target="TIhrnQMRRgqoJbZlH16x-63">
          <mxGeometry relative="1" as="geometry" />
        </mxCell>
        <mxCell id="TIhrnQMRRgqoJbZlH16x-65" style="edgeStyle=orthogonalEdgeStyle;rounded=0;orthogonalLoop=1;jettySize=auto;html=1;exitX=0.5;exitY=1;exitDx=0;exitDy=0;exitPerimeter=0;" edge="1" parent="1" source="TIhrnQMRRgqoJbZlH16x-36" target="TIhrnQMRRgqoJbZlH16x-58">
          <mxGeometry relative="1" as="geometry" />
        </mxCell>
        <mxCell id="TIhrnQMRRgqoJbZlH16x-66" style="edgeStyle=orthogonalEdgeStyle;rounded=0;orthogonalLoop=1;jettySize=auto;html=1;exitX=0.5;exitY=1;exitDx=0;exitDy=0;exitPerimeter=0;entryX=0.5;entryY=0;entryDx=0;entryDy=0;" edge="1" parent="1" source="TIhrnQMRRgqoJbZlH16x-36" target="TIhrnQMRRgqoJbZlH16x-59">
          <mxGeometry relative="1" as="geometry" />
        </mxCell>
        <mxCell id="TIhrnQMRRgqoJbZlH16x-67" style="edgeStyle=orthogonalEdgeStyle;rounded=0;orthogonalLoop=1;jettySize=auto;html=1;exitX=0.5;exitY=1;exitDx=0;exitDy=0;exitPerimeter=0;entryX=0.5;entryY=0;entryDx=0;entryDy=0;" edge="1" parent="1" source="TIhrnQMRRgqoJbZlH16x-36" target="TIhrnQMRRgqoJbZlH16x-60">
          <mxGeometry relative="1" as="geometry" />
        </mxCell>
        <mxCell id="TIhrnQMRRgqoJbZlH16x-68" style="edgeStyle=orthogonalEdgeStyle;rounded=0;orthogonalLoop=1;jettySize=auto;html=1;exitX=0.5;exitY=1;exitDx=0;exitDy=0;exitPerimeter=0;" edge="1" parent="1" source="TIhrnQMRRgqoJbZlH16x-36" target="TIhrnQMRRgqoJbZlH16x-61">
          <mxGeometry relative="1" as="geometry" />
        </mxCell>
        <mxCell id="TIhrnQMRRgqoJbZlH16x-69" style="edgeStyle=orthogonalEdgeStyle;rounded=0;orthogonalLoop=1;jettySize=auto;html=1;exitX=0.5;exitY=1;exitDx=0;exitDy=0;exitPerimeter=0;entryX=0.5;entryY=0;entryDx=0;entryDy=0;" edge="1" parent="1" source="TIhrnQMRRgqoJbZlH16x-36" target="TIhrnQMRRgqoJbZlH16x-62">
          <mxGeometry relative="1" as="geometry" />
        </mxCell>
        <mxCell id="TIhrnQMRRgqoJbZlH16x-36" value="DB" style="shape=cylinder3;whiteSpace=wrap;html=1;boundedLbl=1;backgroundOutline=1;size=15;" vertex="1" parent="1">
          <mxGeometry x="385" y="844" width="60" height="80" as="geometry" />
        </mxCell>
        <mxCell id="TIhrnQMRRgqoJbZlH16x-51" style="edgeStyle=orthogonalEdgeStyle;rounded=0;orthogonalLoop=1;jettySize=auto;html=1;exitX=1;exitY=0.5;exitDx=0;exitDy=0;entryX=0;entryY=0.5;entryDx=0;entryDy=0;" edge="1" parent="1" source="TIhrnQMRRgqoJbZlH16x-47" target="TIhrnQMRRgqoJbZlH16x-49">
          <mxGeometry relative="1" as="geometry" />
        </mxCell>
        <mxCell id="TIhrnQMRRgqoJbZlH16x-52" style="edgeStyle=orthogonalEdgeStyle;rounded=0;orthogonalLoop=1;jettySize=auto;html=1;exitX=1;exitY=0.5;exitDx=0;exitDy=0;entryX=0;entryY=0.5;entryDx=0;entryDy=0;" edge="1" parent="1" source="TIhrnQMRRgqoJbZlH16x-47" target="TIhrnQMRRgqoJbZlH16x-50">
          <mxGeometry relative="1" as="geometry" />
        </mxCell>
        <mxCell id="TIhrnQMRRgqoJbZlH16x-54" style="edgeStyle=orthogonalEdgeStyle;rounded=0;orthogonalLoop=1;jettySize=auto;html=1;exitX=1;exitY=0.5;exitDx=0;exitDy=0;entryX=0;entryY=0.5;entryDx=0;entryDy=0;" edge="1" parent="1" source="TIhrnQMRRgqoJbZlH16x-47" target="TIhrnQMRRgqoJbZlH16x-53">
          <mxGeometry relative="1" as="geometry" />
        </mxCell>
        <mxCell id="TIhrnQMRRgqoJbZlH16x-57" style="edgeStyle=orthogonalEdgeStyle;rounded=0;orthogonalLoop=1;jettySize=auto;html=1;exitX=1;exitY=0.5;exitDx=0;exitDy=0;entryX=0;entryY=0.5;entryDx=0;entryDy=0;" edge="1" parent="1" source="TIhrnQMRRgqoJbZlH16x-47" target="TIhrnQMRRgqoJbZlH16x-55">
          <mxGeometry relative="1" as="geometry" />
        </mxCell>
        <mxCell id="TIhrnQMRRgqoJbZlH16x-47" value="&amp;lt;F&amp;gt;" style="triangle;whiteSpace=wrap;html=1;" vertex="1" parent="1">
          <mxGeometry x="530" y="623.0000000000001" width="60" height="80" as="geometry" />
        </mxCell>
        <mxCell id="TIhrnQMRRgqoJbZlH16x-49" value="&lt;div&gt;Upload Partners&lt;/div&gt;(.csv)" style="rounded=0;whiteSpace=wrap;html=1;" vertex="1" parent="1">
          <mxGeometry x="650" y="465" width="120" height="60" as="geometry" />
        </mxCell>
        <mxCell id="TIhrnQMRRgqoJbZlH16x-50" value="Partner Conf." style="rounded=0;whiteSpace=wrap;html=1;" vertex="1" parent="1">
          <mxGeometry x="650" y="535" width="120" height="60" as="geometry" />
        </mxCell>
        <mxCell id="TIhrnQMRRgqoJbZlH16x-53" value="Filtering Partners" style="rounded=0;whiteSpace=wrap;html=1;" vertex="1" parent="1">
          <mxGeometry x="650" y="605" width="120" height="60" as="geometry" />
        </mxCell>
        <mxCell id="TIhrnQMRRgqoJbZlH16x-55" value="&lt;div&gt;Export Partners&lt;/div&gt;&lt;div&gt;(.csv)&lt;br&gt;&lt;/div&gt;" style="rounded=0;whiteSpace=wrap;html=1;" vertex="1" parent="1">
          <mxGeometry x="650" y="674" width="120" height="60" as="geometry" />
        </mxCell>
        <mxCell id="TIhrnQMRRgqoJbZlH16x-58" value="Contact Info" style="whiteSpace=wrap;html=1;aspect=fixed;" vertex="1" parent="1">
          <mxGeometry x="225" y="964" width="80" height="80" as="geometry" />
        </mxCell>
        <mxCell id="TIhrnQMRRgqoJbZlH16x-59" value="Allow Admin to Create more Sections of DB" style="whiteSpace=wrap;html=1;aspect=fixed;" vertex="1" parent="1">
          <mxGeometry x="325" y="964" width="80" height="80" as="geometry" />
        </mxCell>
        <mxCell id="TIhrnQMRRgqoJbZlH16x-60" value="Business Name" style="whiteSpace=wrap;html=1;aspect=fixed;" vertex="1" parent="1">
          <mxGeometry x="425" y="964" width="80" height="80" as="geometry" />
        </mxCell>
        <mxCell id="TIhrnQMRRgqoJbZlH16x-61" value="Sponsor Amount" style="whiteSpace=wrap;html=1;aspect=fixed;" vertex="1" parent="1">
          <mxGeometry x="525" y="964" width="80" height="80" as="geometry" />
        </mxCell>
        <mxCell id="TIhrnQMRRgqoJbZlH16x-62" value="Sponsor Details" style="whiteSpace=wrap;html=1;aspect=fixed;" vertex="1" parent="1">
          <mxGeometry x="625" y="964" width="80" height="80" as="geometry" />
        </mxCell>
        <mxCell id="TIhrnQMRRgqoJbZlH16x-63" value="Resource/File Upload for Business" style="whiteSpace=wrap;html=1;aspect=fixed;" vertex="1" parent="1">
          <mxGeometry x="125" y="964" width="80" height="80" as="geometry" />
        </mxCell>
      </root>
    </mxGraphModel>
  </diagram>
</mxfile>
